<?xml version="1.0" encoding="utf-8"?>
<svg version="1.1" id="Layer_1" x="0px" y="0px" viewBox="0 0 512.001 512.001" style="enable-background:new 0 0 512.001 512.001;" xmlns="http://www.w3.org/2000/svg">
  <path style="fill: rgb(124, 84, 184);" d="M 447.845 26.702 C 448.84 12.362 440.192 0 429.165 0 L 82.836 0 C 71.809 0 63.161 12.362 64.156 26.702 L 92.19 430.316 C 92.426 433.714 94.81 436.329 97.671 436.329 L 414.328 436.329 C 417.19 436.329 419.574 433.714 419.809 430.316 L 447.845 26.702 Z"/>
  <path style="fill: rgb(255, 219, 108);" d="M 263.529 158.515 L 283.146 196.348 L 327.012 202.416 C 333.897 203.367 336.646 211.42 331.664 216.044 L 299.922 245.493 L 307.415 287.074 C 308.591 293.602 301.394 298.579 295.235 295.496 L 256 275.864 L 216.765 295.496 C 210.607 298.579 203.41 293.602 204.585 287.074 L 212.078 245.493 L 180.336 216.044 C 175.354 211.42 178.103 203.368 184.988 202.416 L 228.854 196.348 L 248.471 158.516 C 251.553 152.576 260.449 152.576 263.529 158.515 Z"/>
  <path style="fill:#FC4C59;" d="M468.312,435.715H43.689c-10.802,0-19.559,8.756-19.559,19.559v37.169 c0,10.802,8.756,19.559,19.559,19.559h424.624c10.802,0,19.559-8.756,19.559-19.559v-37.169 C487.871,444.472,479.115,435.715,468.312,435.715z"/>
  <g/>
  <g/>
  <g/>
  <g/>
  <g/>
  <g/>
  <g/>
  <g/>
  <g/>
  <g/>
  <g/>
  <g/>
  <g/>
  <g/>
  <g/>
</svg>