<?xml version="1.0" encoding="utf-8"?>
<svg viewBox="0 0 500 500" xmlns="http://www.w3.org/2000/svg">
  <g>
    <path style="fill: rgb(0, 113, 206);" d="M 498.279 24.315 C 498.279 11.887 488.111 1.72 475.684 1.72 L 23.72 1.72 C 11.292 1.72 1.125 11.887 1.125 24.315 L 1.125 476.279 C 1.125 488.707 11.292 498.874 23.72 498.874 L 475.684 498.874 C 488.112 498.874 498.279 488.707 498.279 476.279 L 498.279 24.315 L 498.279 24.315 Z"/>
    <g transform="matrix(0.971005, 0, 0, 0.971005, 1.125866, 1.719712)" style="">
      <rect x="102.398" y="95.422" style="fill:#00A8E1;" width="102.398" height="321.16"/>
      <rect x="307.195" y="95.422" style="fill:#00A8E1;" width="102.398" height="321.16"/>
    </g>
    <polygon style="fill: rgb(0, 85, 184);" points="1.125 317.86 1.125 431.324 498.279 182.747 498.279 69.283"/>
    <g transform="matrix(0.971005, 0, 0, 0.971005, 1.125866, 1.719712)" style="">
      <path style="fill: rgb(0, 61, 119);" d="M488.73,0H23.27C10.471,0,0,10.471,0,23.27v72.148h512V23.27C512,10.471,501.528,0,488.73,0z"/>
      <path style="fill: rgb(0, 61, 119);" d="M488.73,512H23.27C10.471,512,0,501.528,0,488.73v-72.148h512v72.148 C512,501.528,501.528,512,488.73,512z"/>
    </g>
    <g transform="matrix(1.008334, 0, 0, 0.967199, -17.854385, -5.696699)" style="">
      <circle style="fill: rgb(255, 255, 255); stroke-width: 25.7465px;" cx="75.423" cy="56.135" r="25.747"/>
      <circle style="fill:#FFFFFF;" cx="453.44" cy="56.135" r="25.747"/>
      <circle style="fill:#FFFFFF;" cx="75.423" cy="472.716" r="25.747"/>
      <circle style="fill:#FFFFFF;" cx="453.439" cy="472.716" r="25.747"/>
    </g>
  </g>
</svg>