<?xml version="1.0" encoding="utf-8"?>
<svg width="400" height="400" stroke="null" style="vector-effect: non-scaling-stroke;" xmlns="http://www.w3.org/2000/svg">
  <g stroke="null" id="Layer_1">
    <title stroke="null">Layer 1</title>
    <path id="svg_6" d="m0,400l74.99998,-210.83328l249.99997,0l74.99997,210.83328l-399.99992,0z" style="paint-order: fill; fill: rgb(255, 255, 255);"/>
    <path id="svg_1" d="m96.5,123.735l0,0c0,-46.9442 46.33853,-85 103.5,-85l0,0c27.44989,0 53.77554,8.95533 73.18554,24.89592c19.41002,15.9406 30.31446,37.56067 30.31446,60.10408l0,0c0,46.94419 -46.33853,85 -103.5,85l0,0c-57.16146,0 -103.5,-38.05581 -103.5,-85zm51.75,0l0,0c0,23.47209 23.16928,42.5 51.75,42.5c28.58074,0 51.75,-19.02791 51.75,-42.5c0,-23.47209 -23.16927,-42.5 -51.75,-42.5l0,0c-28.58072,0 -51.75,19.02791 -51.75,42.5z" style="paint-order: fill; fill: rgb(255, 255, 255);"/>
  </g>
</svg>