<?xml version="1.0" encoding="utf-8"?>
<svg viewBox="0 0 500 500" xmlns="http://www.w3.org/2000/svg">
  <g transform="matrix(0.794916, 0.221626, -0.221996, 0.796241, 248.882996, -31.384962)" style="">
    <path style="fill: rgb(179, 179, 179);" d="M 345.838 131.81 L 345.838 357.987 L 219.322 357.987 L 221.575 213.139 C 221.323 213.186 304.151 212.982 304.151 212.982 L 305.932 152.41 L 102.025 151.816 L 102.025 212.387 C 102.025 212.387 188.759 212.331 189.353 212.546 L 187.449 357.987 L 60.932 357.987 L 60.932 131.81 C 60.932 116.398 63.379 101.561 67.913 87.66 C 86.492 30.597 140.121 -10.644 203.385 -10.644 C 266.648 -10.644 320.278 30.596 338.857 87.66 C 343.391 101.561 345.838 116.398 345.838 131.81 Z"/>
    <g transform="matrix(-0.966228, 0, 0, -1.166181, 414.543488, 376.169006)" style="">
      <path style="fill:#CCCCCC;" d="M 368.463 113.87 L 368.463 203.681 L 219.008 141.765 L 69.553 203.68 L 69.553 113.87 C 69.553 106.303 73.296 99.229 79.547 94.972 L 219.008 0 L 358.469 94.972 C 364.72 99.229 368.463 106.302 368.463 113.87 Z"/>
      <polygon style="fill: rgb(77, 77, 77);" points="348.928 112.112 348.928 174.439 333.803 168.178 333.803 101.809"/>
      <polygon style="fill: rgb(77, 77, 77);" points="279.619 64.908 320.129 92.505 320.129 162.512 279.619 145.733"/>
      <polygon style="fill:#4D4D4D;" points="89.088 112.112 104.213 101.809 104.213 168.178 89.088 174.439"/>
      <polygon style="fill:#4D4D4D;" points="117.887 92.505 158.387 64.919 158.387 145.733 117.887 162.512"/>
      <polygon style="fill:#4D4D4D;" points="172.062 55.603 212.171 28.295 212.171 123.452 172.062 140.068"/>
      <polygon style="fill: rgb(77, 77, 77);" points="225.845 28.295 265.944 55.603 265.944 140.068 225.845 123.452"/>
    </g>
  </g>
  <g transform="matrix(0.604589, -0.342056, 0.338569, 0.598425, 18.63171, 256.617493)" style="">
    <path style="fill: rgb(186, 191, 201);" d="M 153.207 479.872 C 247.027 453.389 315.258 382.769 332.316 347.458 C 362.426 285.13 379.086 121.604 382.724 82.38 C 349.219 60.235 322.818 27.638 307.793 -10.994 C 265.115 -24.218 211.512 -32.128 153.207 -32.128 C 94.902 -32.128 41.297 -24.218 -1.379 -10.995 C -16.403 27.638 -42.805 60.234 -76.31 82.379 C -72.672 121.603 -56.012 285.13 -25.902 347.458 C -8.844 382.769 59.387 453.389 153.207 479.872 Z"/>
    <path style="fill: rgb(125, 125, 125);" d="M 153.207 3.182 C 110.565 3.182 68.805 7.745 32.441 16.377 L 24.577 18.244 L 20.852 25.418 C 7.391 51.338 -10.486 74.124 -32.28 93.143 L -39.206 99.188 L -38.225 108.329 C -33.938 148.273 -18.087 282.459 5.894 332.098 C 17.892 356.934 71.703 414.373 147.348 440.99 L 153.208 443.052 L 159.068 440.99 C 234.714 414.374 288.525 356.935 300.523 332.097 C 324.503 282.457 340.354 148.271 344.641 108.329 L 345.622 99.188 L 338.696 93.143 C 316.902 74.124 299.025 51.338 285.564 25.418 L 281.839 18.244 L 273.975 16.377 C 237.609 7.745 195.849 3.182 153.207 3.182 L 153.207 3.182 Z"/>
  </g>
</svg>