<?xml version="1.0" encoding="utf-8"?>
<svg version="1.1" id="Layer_1" x="0px" y="0px" viewBox="0 0 460 460" style="enable-background:new 0 0 460 460;" xmlns="http://www.w3.org/2000/svg">
  <g id="XMLID_927_">
    <polygon id="XMLID_928_" style="fill: rgb(239, 143, 74);" points="380,49 390,105.57 380,162.14 351,133.14 351,440 230,440 210,255 230,80 &#10;&#9;&#9;322.418,20.002 351,20 &#9;"/>
    <polygon id="XMLID_929_" style="fill: rgb(223, 126, 56);" points="460,129 460,260 420,280 380,260 380,162.14 380,49 &#9;"/>
    <rect id="XMLID_930_" x="380" y="260" style="fill: rgb(137, 58, 49);" width="80" height="30"/>
    <polygon id="XMLID_931_" style="fill: rgb(239, 143, 74);" points="230,80 230,440 109,440 109,133.14 80,162.14 70,105.57 80,49 109,20 &#10;&#9;&#9;137.582,20.002 &#9;"/>
    <polygon id="XMLID_932_" style="fill: rgb(223, 126, 56);" points="80,162.14 80,260 40,280 0,260 0,129 80,49 &#9;"/>
    <rect id="XMLID_933_" y="260" style="fill:#893A31;" width="80" height="30"/>
    <rect id="XMLID_934_" x="109" y="382" style="fill:#893A31;" width="30" height="28"/>
    <rect id="XMLID_935_" x="109" y="322" style="fill:#893A31;" width="30" height="28"/>
    <rect id="XMLID_936_" x="109" y="262" style="fill:#893A31;" width="30" height="28"/>
    <rect id="XMLID_937_" x="321" y="382" style="fill: rgb(137, 58, 49);" width="30" height="28"/>
    <rect id="XMLID_938_" x="321" y="322" style="fill: rgb(137, 58, 49);" width="30" height="28"/>
    <rect id="XMLID_939_" x="321" y="262" style="fill: rgb(137, 58, 49);" width="30" height="28"/>
    <polygon id="XMLID_940_" style="fill: rgb(137, 58, 49);" points="270.61,181.82 251.21,201.21 270.61,220.61 249.39,241.82 230,222.43 &#10;&#9;&#9;220,201.215 230,180 249.39,160.61 &#9;"/>
    <polygon id="XMLID_941_" style="fill:#893A31;" points="230,180 230,222.43 210.61,241.82 189.39,220.61 208.79,201.21 &#10;&#9;&#9;189.39,181.82 210.61,160.61 &#9;"/>
    <polygon id="XMLID_942_" style="fill: rgb(137, 58, 49);" points="230,70 220,91.215 230,112.43 249.39,131.82 270.61,110.61 251.21,91.21 &#10;&#9;&#9;322.418,20.002 280,20 &#9;"/>
    <polygon id="XMLID_943_" style="fill:#893A31;" points="230,70 230,112.43 210.61,131.82 189.39,110.61 208.79,91.21 &#10;&#9;&#9;137.582,20.002 180,20 &#9;"/>
  </g>
  <g/>
  <g/>
  <g/>
  <g/>
  <g/>
  <g/>
  <g/>
  <g/>
  <g/>
  <g/>
  <g/>
  <g/>
  <g/>
  <g/>
  <g/>
</svg>