<?xml version="1.0" encoding="utf-8"?>
<svg id="Capa_1" enable-background="new 0 0 512 512" height="512" viewBox="0 0 512 512" width="512" xmlns="http://www.w3.org/2000/svg">
  <g transform="matrix(-0.884402, 0.106294, -0.106941, -0.889776, 512.103882, 455.124329)" style="">
    <g>
      <path d="M 24.436 302.241 L 22.894 301.086 L 0.174 482.527 C -0.518 488.541 0.878 494.546 4.027 499.58 L 6.945 497.406 L 59.226 359.048 Z" fill="#60b9fe"/>
      <path d="M 210.061 485.645 L 152.952 453.194 L 13.095 507.043 L 12.42 507.974 C 17.454 511.123 23.459 512.519 29.473 511.827 L 210.912 489.106 Z" fill="#8bcaff"/>
      <path d="M 508.555 14.124 L 507.973 12.42 L 504.885 15.047 L 453.87 154.1 L 487.565 210.913 L 489.106 210.913 L 488.724 202.604" fill="#8bcaff"/>
      <path d="M 482.527 0.174 L 301.087 22.895 L 302.52 27.593 L 359.049 63.273 L 499.112 5.046 L 499.58 4.027 C 494.546 0.877 488.541 -0.519 482.527 0.174 Z" fill="#60b9fe"/>
      <path d="M 504.434 9.574 L 394.001 95.899 L 450.522 151.267 L 456.816 152.952 L 507.445 16.033 C 508.133 14.148 508.142 12.283 507.674 10.598 Z" fill="#b5dcff"/>
      <path d="M 495.967 4.555 L 359.049 55.185 L 357.978 60.612 L 398.355 100.165 C 401.781 100.088 403.898 100.035 403.898 100.035 L 507.674 10.6 C 506.365 5.895 501.231 2.636 495.967 4.555 Z" fill="#8bcaff"/>
      <path d="M 507.445 16.033 L 456.816 152.952 L 487.292 205.818 C 488.221 207.429 488.814 209.156 489.106 210.913 L 511.827 29.474 C 512.519 23.46 511.123 17.455 507.974 12.421 C 508.041 13.588 507.893 14.806 507.445 16.033 Z" fill="#8bcaff"/>
      <path d="M 487.292 205.818 L 456.816 152.952 L 442.28 152.952 L 152.952 440.575 L 152.952 456.816 L 205.818 487.292 C 211.771 490.723 219.286 489.731 224.144 484.873 C 228.167 480.85 478.438 230.579 484.873 224.144 C 489.731 219.286 490.723 211.771 487.292 205.818 Z" fill="#60b9fe"/>
      <path d="M 306.183 24.709 C 300.23 21.278 292.715 22.269 287.857 27.128 C 283.833 31.152 33.563 281.422 27.128 287.858 C 22.27 292.716 21.278 300.231 24.709 306.184 L 55.185 359.05 L 66.61 359.05 L 359.05 68.339 L 359.05 55.185 Z" fill="#1ca8ff"/>
      <path d="M 96.281 392.701 L 10.808 502.986 L 9.581 507.33 C 11.511 508.131 13.76 508.273 16.034 507.444 L 152.953 456.815 L 152.953 450.704 Z" fill="#b5dcff"/>
      <path d="M 55.185 359.049 L 4.555 495.967 C 2.777 500.843 5.441 505.613 9.581 507.331 L 100.034 403.898 L 98.389 394.859 L 63.401 359.048 L 55.185 359.048 Z" fill="#8bcaff"/>
      <path d="M 388.711 100.034 L 105.069 389.066 L 100.034 403.898 L 152.952 456.816 C 166.257 443.511 446.1 163.668 456.816 152.952 L 403.898 100.034 Z" fill="#8bcaff"/>
      <path d="M 359.049 55.185 C 345.743 68.49 65.9 348.333 55.184 359.049 L 100.033 403.898 C 113.338 390.593 393.181 110.75 403.897 100.034 Z" fill="#60b9fe"/>
    </g>
  </g>
</svg>