<?xml version="1.0" encoding="utf-8"?>
<svg version="1.1" id="Layer_1" x="0px" y="0px" viewBox="0 0 511.504 511.504" style="enable-background:new 0 0 511.504 511.504;" xmlns="http://www.w3.org/2000/svg">
  <g>
    <path style="fill: rgb(211, 202, 172);" d="M437.294,0.55L391.17,18.576c-20.551,5.252-41.649,7.91-62.835,7.91h-145.17 c-21.177,0-42.284-2.657-62.835-7.91L74.215,0.55C60.542-2.946,48.757,10.86,53.983,24.234l25.22,64.044 c-23.049,103.989-23.34,216.647,0,335.448l-20.913,63.559c-5.005,12.773,5.588,26.236,18.873,23.967l52.206-8.889 c7.795-1.333,15.651-2.295,23.111-3.637c15.466-2.79,31.082-4.379,46.777-4.379h112.984c15.695,0,31.32,1.589,46.777,4.379 c7.468,1.342,15.316,2.304,23.119,3.637l52.198,8.889c13.285,2.269,23.879-11.193,18.882-23.967l-20.913-63.559 c23.755-122.915,23.42-235.185,0-335.448l25.212-64.044C462.753,10.86,450.959-2.946,437.294,0.55"/>
    <polygon style="fill: rgb(171, 165, 134);" points="158.65 157.246 352.856 157.246 352.856 87.458 158.65 87.458"/>
    <g transform="matrix(1, 0, 0, 1, -0.000021, -3.079843)">
      <path style="fill: rgb(211, 202, 172);" d="M 308.719 134.051 L 202.788 134.051 C 197.915 134.051 193.96 130.105 193.96 125.223 C 193.96 120.341 197.915 116.395 202.788 116.395 L 308.719 116.395 C 313.592 116.395 317.547 120.341 317.547 125.223 C 317.547 130.105 313.591 134.051 308.719 134.051"/>
    </g>
  </g>
  <g/>
  <g/>
  <g/>
  <g/>
  <g/>
  <g/>
  <g/>
  <g/>
  <g/>
  <g/>
  <g/>
  <g/>
  <g/>
  <g/>
  <g/>
</svg>