<?xml version="1.0" encoding="utf-8"?>
<svg viewBox="0 0 500 500" xmlns="http://www.w3.org/2000/svg">
  <g transform="matrix(0.379063, -0.095395, 0.190305, 0.7562, 206.339401, 128.336517)" style="">
    <path style="fill:#81AF46;" d="M 311.542 -87.618 C 253.902 -125.852 158.506 -95.962 158.506 -95.962 L 123.506 -26.448 L 142.724 1.364 L 319.776 -4.901 C 319.777 -4.901 369.197 -49.385 311.542 -87.618 Z"/>
    <path style="fill:#8CC153;" d="M 265.574 -22.229 L 252.856 -54.978 L 219.638 -86.306 C 219.638 -86.306 153.147 -122.056 124.061 -112.868 C 44.563 -87.743 42.86 45.895 42.86 45.895 C 42.86 45.895 23.314 245.375 102.702 347.389 C 148.318 405.996 216.239 386.997 216.239 386.997 L 247.731 328.795 L 247.043 147.346 L 265.574 -22.229 Z"/>
    <path style="opacity:0.1;enable-background:new    ;" d="M 172.717 -12.057 C 175.248 -17.369 172.998 -23.745 167.678 -26.276 C 162.358 -28.807 155.991 -26.557 153.46 -21.229 C 152.319 -18.854 125.523 38.098 116.82 119.909 C 114.414 142.58 113.64 164.955 114.515 186.877 C 103.476 167.658 98.757 139.439 97.757 126.737 C 97.304 120.862 92.172 116.471 86.304 116.925 C 80.429 117.378 76.031 122.503 76.492 128.378 C 76.547 129.144 78.008 147.393 83.937 167.877 C 91.46 193.86 102.64 211.61 117.202 220.751 C 118.749 233.625 120.889 246.328 123.616 258.797 C 133.858 305.64 152.467 349.467 179.029 389.419 C 189.255 390.372 198.193 389.857 204.739 389.06 C 175.474 348.42 155.232 303.265 144.552 254.672 C 135.381 212.985 133.162 168.643 137.959 122.894 C 146.139 44.754 172.303 -11.182 172.717 -12.057 Z"/>
    <path style="opacity:0.05;enable-background:new    ;" d="M 247.731 328.794 L 247.043 147.345 L 265.573 -22.229 L 253.777 -52.619 C 253.402 -51.338 252.746 -50.244 251.621 -49.432 C 245.215 -44.791 244.277 -50.838 225.997 -45.713 C 207.708 -40.604 200.036 -30.635 194.903 -14.198 C 189.77 2.239 222.794 24.27 218.669 37.707 C 214.551 51.144 189.2 60.44 185.732 76.644 C 182.263 92.847 209.067 103.659 212.27 120.502 C 215.465 137.36 216.841 149.798 211.348 163.735 C 205.864 177.673 181.615 190.656 174.747 219.39 C 167.888 248.123 210.434 306.997 208.153 330.621 C 205.864 354.262 199.395 388.651 214.035 387.042 C 222.239 386.136 225.2 386.12 232.293 385.058 L 247.731 328.794 Z"/>
    <path style="fill:#A0D468;" d="M 360.525 206.969 C 391.463 67.909 418.133 -10.807 333.76 -112.774 C 306.667 -145.523 285.855 -81.65 278.308 -74.447 C 270.761 -67.259 279.355 -54.056 272.949 -49.432 C 266.543 -44.791 265.605 -50.838 247.325 -45.713 C 229.045 -40.604 221.373 -30.635 216.24 -14.198 C 211.108 2.239 244.122 24.27 240.013 37.707 C 235.888 51.144 210.53 60.44 207.061 76.644 C 203.6 92.847 230.397 103.659 233.608 120.502 C 236.81 137.36 238.185 149.798 232.686 163.735 C 227.194 177.673 202.944 190.656 196.084 219.39 C 189.217 248.123 231.779 306.997 229.482 330.621 C 227.193 354.262 201.599 388.604 216.239 386.995 C 307.417 376.982 325.713 363.388 360.525 206.969 Z"/>
    <path style="opacity:0.1;enable-background:new    ;" d="M 338.791 76.425 C 332.9 76.816 328.463 81.894 328.853 87.768 C 328.869 87.987 330.291 110.643 325.635 135.892 C 321.588 157.798 314.744 172.236 307.307 181.751 C 307.557 179.689 307.791 177.626 308.01 175.548 C 316.838 94.034 314.713 24.535 314.698 23.848 C 314.495 17.957 309.573 13.348 303.682 13.536 C 297.791 13.724 293.182 18.661 293.37 24.536 C 293.386 25.224 295.464 93.456 286.776 173.517 C 276.354 269.562 254.949 342.544 224.598 386.043 C 234.824 384.809 244.058 383.481 252.48 381.809 C 264.901 360.138 275.604 333.747 284.432 302.905 C 292.057 276.297 298.338 246.281 303.198 213.344 C 355.946 183.47 350.399 90.425 350.134 86.363 C 349.744 80.472 344.666 76.019 338.791 76.425 Z"/>
  </g>
  <g transform="matrix(-0.4361, -0.961548, -0.811882, 0.36822, 592.761292, 361.029083)" style="">
    <path style="fill: rgb(217, 159, 76);" d="M 220.036 263.705 L 257.017 264.533 C 287.696 281.278 280.348 283.852 299.667 264.533 L 333.817 264.533 C 333.962 264.652 357.148 283.852 376.467 264.533 L 408.124 263.345 C 483.533 263.345 504.467 325.665 504.467 401.066 C 504.467 476.467 460.409 477.866 385 477.866 L 154.6 477.866 C 221.645 331.327 135.06 262.929 158.377 263.703 C 181.694 264.477 158.722 263.543 181.987 264.672 C 196.271 279.305 222.979 280.167 220.036 263.705 Z"/>
    <path d="M 408.124 262.845 C 445.964 262.885 470.289 278.575 485.005 303.677 C 499.712 328.762 504.967 363.328 504.967 401.066 C 504.967 438.891 493.796 458.356 473.228 468.192 C 452.692 478.013 422.707 478.366 385 478.366 L 152.087 478.366 L 154.408 477.404 C 182.763 465.658 195.978 447.337 202.93 430.097 C 209.872 412.879 210.464 396.742 213.424 389.469 C 219.208 375.26 190.921 320.632 154.182 264.808 L 153.672 264.033 L 257.145 264.033 L 257.257 264.094 C 272.636 272.494 278.37 277.247 282.638 277.558 C 286.838 277.865 289.627 273.87 299.313 264.179 L 299.46 264.033 L 333.996 264.033 L 334.134 264.146 C 334.208 264.207 339.957 268.97 348.092 271.342 C 356.253 273.722 366.63 273.766 376.113 264.179 L 376.251 264.041 L 376.448 264.033 Z M 376.68 265.025 C 366.881 274.62 356.109 274.722 347.812 272.302 C 339.487 269.875 334.588 265.784 333.641 265.033 L 299.874 265.033 C 290.355 274.559 287.191 278.893 282.566 278.556 C 278.008 278.223 272.106 273.341 256.889 265.033 L 155.527 265.033 C 192.046 320.637 220.278 375.284 214.35 389.847 C 211.454 396.96 210.863 413.096 203.857 430.471 C 196.86 447.822 184.07 465.427 157.033 477.366 L 385 477.366 C 422.702 477.366 452.45 477.02 472.796 467.29 C 493.109 457.577 503.967 438.642 503.967 401.066 C 503.967 363.403 498.755 329.108 484.143 304.183 C 469.54 279.275 445.697 263.808 408.134 263.845 Z" style="fill: none;"/>
    <path style="fill:#AA7835;" d="M 180.464 264.603 C 208.804 290.203 228.62 318.721 228.62 340.226 C 228.62 349.647 236.266 357.292 245.688 357.292 C 255.116 357.292 262.754 349.647 262.754 340.226 C 262.754 316.682 242.607 289.026 220.087 263.426 C 200.776 282.746 180.609 264.723 180.464 264.603 Z" transform="matrix(1, 0, 0, 1, -0.000028, 0.000033)"/>
    <g>
      <path style="fill:#AA7835;" d="M385,341.333c0,9.421,7.646,17.067,17.067,17.067c9.421,0,17.067-7.646,17.067-17.067 c0-23.543-20.156-51.2-42.667-76.8c-19.319,19.319-42.505,0.119-42.65,0H333.8C362.139,290.133,385,319.821,385,341.333"/>
      <path style="fill:#AA7835;" d="M257.014,264.533L257.014,264.533c28.339,25.6,51.183,55.296,51.183,76.8 c0,9.421,7.646,17.067,17.067,17.067c9.429,0,17.067-7.646,17.067-17.067c0-23.543-20.147-51.2-42.667-76.8 C280.352,283.853,257.159,264.653,257.014,264.533"/>
    </g>
  </g>
  <g transform="matrix(1, 0, 0, 1, 40.380047, 1.781473)">
    <path style="fill: rgb(138, 192, 84);" d="M 448.163 115.456 C 444.151 111.693 437.661 111.679 433.667 115.429 L 381.269 164.412 L 385.19 93.608 C 385.476 88.301 381.134 83.777 375.471 83.501 C 369.823 83.226 365 87.301 364.714 92.615 L 360.328 171.889 L 374.93 172.602 L 388.21 185.098 L 448.135 129.06 C 452.144 125.309 452.16 119.22 448.163 115.456 Z"/>
    <path style="fill: rgb(158, 211, 106);" d="M 416.572 89.456 C 411.404 87.293 405.334 89.47 403.037 94.327 C 402.932 94.566 402.842 94.806 402.751 95.052 L 402.692 95.031 L 368.231 167.534 L 386.978 175.379 L 421.44 102.876 L 421.394 102.862 C 421.529 102.629 421.65 102.403 421.77 102.164 C 424.082 97.315 421.754 91.62 416.572 89.456 Z"/>
    <path style="fill: rgb(251, 109, 81);" d="M 386.483 152.782 C 360.629 141.957 332.177 148.919 322.952 168.337 L 239.399 344.091 L 333.047 383.291 L 416.602 207.53 C 425.824 188.12 412.334 163.607 386.483 152.782 Z"/>
    <g transform="matrix(0.961714, 0, 0, 0.90241, 3.580183, 49.89827)" style="">
      <path style="fill:#E8563F;" d="M364.498,215.628L364.498,215.628c-5.389-2.406-11.684,0.016-14.074,5.389 c-2.405,5.381,0,11.684,5.389,14.082v0.008l38.941,17.37l8.701-19.479L364.498,215.628z"/>
      <path style="fill:#E8563F;" d="M314.701,170.204l38.956,17.37l0,0c5.39,2.398,11.685-0.016,14.074-5.396 c2.405-5.374,0-11.684-5.39-14.082l-38.941-17.37L314.701,170.204z"/>
    </g>
  </g>
  <g>
    <path style="fill: rgb(138, 192, 84);" d="M 144.764 198.37 C 143.877 193.12 138.62 189.547 133.023 190.379 C 127.435 191.216 123.62 196.143 124.513 201.394 L 134.18 258.412 L 154.43 255.387 L 144.764 198.37 Z" transform="matrix(0.973909, -0.226937, 0.226937, 0.973909, -47.27281, 37.489577)"/>
    <path style="fill: rgb(217, 68, 82);" d="M 90.928 328.754 C 107.949 373.903 160.766 397.556 208.898 381.586 C 257.037 365.615 282.273 316.054 265.238 270.912 C 248.226 225.763 195.408 202.103 147.277 218.081 C 99.137 234.051 73.915 283.606 90.928 328.754 Z"/>
  </g>
  <g>
    <g transform="matrix(0.961714, 0, 0, 0.90241, 3.580183, 49.89827)" style="">
      <rect y="197.38" style="fill:#F4BE8E;" width="85.3" height="127.96"/>
      <rect x="426.522" y="197.38" style="fill:#F4BE8E;" width="85.32" height="127.96"/>
    </g>
    <g transform="matrix(0.961714, 0, 0, 0.90241, 3.580183, 49.89827)" style="">
      <rect y="240.03" style="fill:#FFD2A6;" width="511.84" height="127.95"/>
      <rect y="346.66" style="fill:#FFD2A6;" width="511.84" height="127.96"/>
    </g>
    <g transform="matrix(0.961714, 0, 0, 0.90241, 3.580183, 49.89827)" style="">
      <path style="fill:#424953;" d="M53.312,293.345c0,5.889-4.772,10.654-10.661,10.654s-10.668-4.766-10.668-10.654 s4.78-10.668,10.668-10.668S53.312,287.456,53.312,293.345z"/>
      <path style="fill:#424953;" d="M479.854,293.345c0,5.889-4.779,10.654-10.669,10.654c-5.889,0-10.669-4.766-10.669-10.654 s4.78-10.668,10.669-10.668S479.854,287.456,479.854,293.345z"/>
      <path style="fill:#424953;" d="M53.312,421.29c0,5.905-4.772,10.67-10.661,10.67s-10.668-4.765-10.668-10.67 c0-5.889,4.78-10.652,10.668-10.652S53.312,415.401,53.312,421.29z"/>
      <path style="fill:#424953;" d="M479.854,421.29c0,5.905-4.779,10.67-10.669,10.67c-5.889,0-10.669-4.765-10.669-10.67 c0-5.889,4.78-10.652,10.669-10.652S479.854,415.401,479.854,421.29z"/>
    </g>
    <rect y="362.727" style="fill: rgb(244, 190, 142);" width="492.244" height="19.241" x="3.581"/>
  </g>
</svg>