<?xml version="1.0" encoding="utf-8"?>
<svg viewBox="0 0 500 500" xmlns="http://www.w3.org/2000/svg">
  <g style="" transform="matrix(4.272562, -0.347648, 0.391871, 4.816066, -479.985352, -387.5336)">
    <polygon style="fill:#CC2E48;" points="154.988 145.952 125.988 109.952 183.988 109.952"/>
    <polygon style="fill:#FC3952;" points="183.988 109.952 125.988 109.952 135.988 93.952 173.988 93.952"/>
    <polygon style="fill:#F76363;" points="168.142 109.952 173.988 93.952 135.988 93.952 141.834 109.952"/>
    <polygon style="fill:#F49A9A;" points="167.988 109.952 154.988 93.952 141.988 109.952"/>
    <polygon style="fill:#CB465F;" points="141.834 109.952 154.988 145.952 168.142 109.952"/>
  </g>
  <g transform="matrix(0.633901, -0.177311, 0.215905, 0.771891, -47.660461, 116.325676)" style="">
    <path style="fill: rgb(249, 243, 154);" d="M 105.804 510.75 C 102.508 510.75 99.217 509.558 96.639 507.174 L 6.526 423.851 C 3.824 421.355 2.293 417.866 2.293 414.214 L 2.293 232.098 C 2.293 228.412 3.855 224.891 6.604 222.389 L 96.716 140.385 C 99.283 138.049 102.542 136.881 105.805 136.881 C 109.066 136.881 112.324 138.048 114.889 140.385 L 205.002 222.389 C 207.748 224.892 209.315 228.411 209.315 232.098 L 209.315 414.214 C 209.315 417.866 207.781 421.354 205.079 423.851 L 114.966 507.174 C 112.39 509.558 109.097 510.75 105.804 510.75 Z" transform="matrix(0.999715, 0.020975, -0.027152, 0.999715, 8.822322, -2.127024)"/>
    <g>
      <path style="fill: rgb(246, 212, 89);" d="M 105.804 442.165 L 105.804 509.707 C 102.51 509.707 99.217 508.515 96.639 506.131 L 6.526 422.808 C 3.824 420.312 2.293 416.823 2.293 413.171 L 55.882 396.004 L 105.804 442.165 Z"/>
      <path style="fill: rgb(246, 212, 89);" d="M 209.24 231.529 C 209.24 227.835 207.67 224.308 204.918 221.801 L 114.621 139.629 C 112.051 137.287 108.785 136.119 105.518 136.119 L 105.518 203.397 L 155.539 248.919 L 209.24 231.529 Z"/>
    </g>
    <g transform="matrix(1, 0, 0, 1, -10.157786, -1.249929)">
      <path style="fill:#EFBA50;" d="M 115.962 443.415 L 115.962 510.957 C 119.254 510.957 122.549 509.765 125.124 507.381 L 215.237 424.058 C 217.939 421.562 219.473 418.073 219.473 414.421 L 165.881 397.254 L 115.962 443.415 Z"/>
      <path style="fill:#EFBA50;" d="M 12.45 232.305 C 12.45 228.619 14.012 225.099 16.761 222.597 L 106.873 140.593 C 109.44 138.257 112.699 137.089 115.962 137.089 L 115.962 204.23 L 66.04 249.66 L 12.45 232.305 Z"/>
    </g>
    <g transform="matrix(1, 0, 0, 1, -10.157786, -1.249929)">
      <polygon style="fill:#E5AE36;" points="66.039,397.067 66.039,249.473 12.45,232.305 12.45,414.421 &#9;"/>
      <polygon style="fill:#E5AE36;" points="165.881,249.661 165.881,397.256 219.473,414.421 219.473,232.305 &#9;"/>
    </g>
  </g>
  <g transform="matrix(0.633282, 0.248072, -0.249641, 0.637288, 292.659821, 73.252617)" style="">
    <path style="fill:#40A077;" d="M 392.123 448.042 L 392.123 167.051 L 392.613 167.051 L 282.364 50.608 C 281.151 49.327 279.127 48.561 278.127 48.21 L 278.127 48.231 C 277.127 47.965 275.586 47.976 274.38 48.242 L 274.317 48.25 C 272.722 48.601 271.197 49.325 269.984 50.606 L 159.641 167.051 L 160.131 167.051 L 160.131 448.042 L 159.641 448.042 L 270.17 557.459 C 271.37 558.646 272.838 559.464 274.377 559.787 C 275.531 560.03 276.724 560.064 277.877 559.822 C 279.415 559.499 280.882 558.629 282.082 557.444 L 392.613 448.043 L 392.123 448.043 L 392.123 448.042 Z"/>
    <path style="fill:#49BC6E;" d="M 331.656 167.226 L 277.958 48.254 C 276.752 47.988 275.502 47.988 274.296 48.254 L 220.597 167.226 L 331.656 167.226 Z"/>
    <path style="fill:#40A077;" d="M 331.656 167.226 L 392.613 167.226 L 282.28 50.696 C 281.067 49.415 279.553 48.605 277.958 48.254 L 331.656 167.226 Z"/>
    <path style="fill:#69D189;" d="M 269.974 50.696 L 159.641 167.226 L 220.598 167.226 L 274.296 48.254 C 272.701 48.605 271.187 49.415 269.974 50.696 Z"/>
    <path style="fill:#33896A;" d="M 220.598 448.317 L 274.377 559.856 C 275.531 560.099 276.724 560.099 277.877 559.856 L 331.656 448.317 L 220.598 448.317 Z"/>
    <path style="fill:#2C7A62;" d="M 282.082 557.597 L 392.613 448.316 L 331.657 448.316 L 277.878 559.855 C 279.416 559.532 280.882 558.783 282.082 557.597 Z"/>
    <path style="fill:#40A077;" d="M 159.641 448.317 L 270.17 557.596 C 271.37 558.783 272.838 559.532 274.377 559.856 L 220.597 448.317 L 159.641 448.317 L 159.641 448.317 Z"/>
    <rect x="159.643" y="167.224" style="fill:#33896A;" width="232.972" height="281.091"/>
    <rect x="220.6" y="167.224" style="fill:#40A077;" width="111.056" height="281.091"/>
    <rect x="159.643" y="167.224" style="fill:#49BC6E;" width="60.957" height="281.091"/>
  </g>
</svg>