<?xml version="1.0" encoding="utf-8"?>
<svg version="1.1" id="Layer_1" x="0px" y="0px" viewBox="0 0 512 512" style="enable-background:new 0 0 512 512;" xmlns="http://www.w3.org/2000/svg">
  <polygon style="fill: rgb(241, 204, 64);" points="317.026,54.558 317.026,457.442 413.38,512 413.38,0 "/>
  <polygon style="fill-rule: nonzero; fill: rgb(234, 174, 54);" points="337.924 75.456 413.38 0 256 0 235.102 96.354"/>
  <polygon style="fill: rgb(234, 174, 54);" points="256 0 98.62 0 174.076 96.354 256 96.354"/>
  <polygon style="fill: rgb(234, 174, 54);" points="337.924,436.544 235.102,415.646 256,512 413.38,512 "/>
  <polygon style="fill: rgb(234, 174, 54);" points="174.076,415.646 98.62,512 256,512 256,415.646 "/>
  <polygon style="fill: rgb(242, 220, 94);" points="256,436.544 337.924,436.544 337.924,75.456 256,75.456 235.102,256 "/>
  <polygon style="fill: rgb(242, 220, 94);" points="256,75.456 174.076,75.456 153.178,256 174.076,436.544 256,436.544 "/>
  <polygon style="fill:#F1CC40;" points="174.076,75.456 98.62,0 98.62,512 174.076,436.544 "/>
  <g transform="matrix(1, 0, 0, 1, 0, 3)">
    <polygon style="fill: rgb(235, 195, 52);" points="292.29 131.68 256 131.68 235.102 147.353 256 163.027 292.29 163.027"/>
  </g>
  <g transform="matrix(1, 0, 0, 1, 0, 22)">
    <g>
      <g>
        <rect x="219.711" y="112.685" style="fill: rgb(235, 195, 52);" width="36.29" height="31.347"/>
      </g>
    </g>
  </g>
  <g/>
  <g/>
  <g/>
  <g/>
  <g/>
  <g/>
  <g/>
  <g/>
  <g/>
  <g/>
  <g/>
  <g/>
  <g/>
  <g/>
  <g/>
</svg>