<?xml version="1.0" encoding="utf-8"?>
<svg version="1.1" id="Layer_1" x="0px" y="0px" viewBox="0 0 512 512" style="enable-background:new 0 0 512 512;" xmlns="http://www.w3.org/2000/svg">
  <g style="" transform="matrix(0.59154, -0.522866, 0.621898, 0.703579, -56.089794, 210.484299)">
    <path style="fill: rgb(139, 75, 32);" d="M79.448,282.483h353.103v-70.621H79.448V282.483z"/>
    <path style="fill: rgb(139, 75, 32);" d="M79.448,132.414h353.103V61.793H79.448V132.414z"/>
  </g>
  <g style="" transform="matrix(0.59154, -0.522866, 0.621898, 0.703579, -56.089794, 210.484299)">
    <path style="fill: rgb(176, 104, 46);" d="M158.897,247.172c0,5.297-3.531,8.828-8.828,8.828s-8.828-3.531-8.828-8.828 s3.531-8.828,8.828-8.828S158.897,241.876,158.897,247.172"/>
    <path style="fill: rgb(176, 104, 46);" d="M158.897,97.103c0,5.297-3.531,8.828-8.828,8.828s-8.828-3.531-8.828-8.828s3.531-8.828,8.828-8.828 S158.897,91.807,158.897,97.103"/>
    <path style="fill: rgb(176, 104, 46);" d="M370.759,97.103c0,5.297-3.531,8.828-8.828,8.828s-8.828-3.531-8.828-8.828s3.531-8.828,8.828-8.828 S370.759,91.807,370.759,97.103"/>
    <path style="fill: rgb(176, 104, 46);" d="M370.759,247.172c0,5.297-3.531,8.828-8.828,8.828s-8.828-3.531-8.828-8.828 s3.531-8.828,8.828-8.828S370.759,241.876,370.759,247.172"/>
    <path style="fill: rgb(176, 104, 46);" d="M114.759,61.793h70.621V0h-70.621V61.793z"/>
    <path style="fill: rgb(176, 104, 46);" d="M114.759,211.862h70.621v-79.448h-70.621V211.862z"/>
    <path style="fill: rgb(176, 104, 46);" d="M326.621,61.793h70.621V0h-70.621V61.793z"/>
    <path style="fill: rgb(176, 104, 46);" d="M326.621,211.862h70.621v-79.448h-70.621V211.862z"/>
  </g>
  <path style="fill: rgb(139, 75, 32);" d="M 203 389.279 L 481.774 389.279 L 481.774 322.964 L 203 322.964 L 203 389.279 Z" transform="matrix(0.74926, -0.662276, 0.662276, 0.74926, -150.000592, 316.048615)"/>
  <g style="" transform="matrix(0.59154, -0.522866, 0.621898, 0.703579, -56.089794, 210.484299)">
    <path style="fill: rgb(176, 104, 46);" d="M158.897,397.241c0,5.297-3.531,8.828-8.828,8.828s-8.828-3.531-8.828-8.828 c0-5.297,3.531-8.828,8.828-8.828S158.897,391.945,158.897,397.241"/>
    <path style="fill: rgb(176, 104, 46);" d="M370.759,397.241c0,5.297-3.531,8.828-8.828,8.828s-8.828-3.531-8.828-8.828 c0-5.297,3.531-8.828,8.828-8.828S370.759,391.945,370.759,397.241"/>
    <path style="fill: rgb(176, 104, 46);" d="M114.759,361.931h70.621v-79.448h-70.621V361.931z"/>
    <path style="fill: rgb(176, 104, 46);" d="M326.621,361.931h70.621v-79.448h-70.621V361.931z"/>
    <path style="fill: rgb(176, 104, 46);" d="M114.759,512h70.621v-79.448h-70.621V512z"/>
    <path style="fill: rgb(176, 104, 46);" d="M326.621,512h70.621v-79.448h-70.621V512z"/>
  </g>
  <g style="" transform="matrix(0.59154, -0.522866, 0.621898, 0.703579, -56.089794, 210.484299)"/>
  <g style="" transform="matrix(0.59154, -0.522866, 0.621898, 0.703579, -56.089794, 210.484299)"/>
  <g style="" transform="matrix(0.59154, -0.522866, 0.621898, 0.703579, -56.089794, 210.484299)"/>
  <g style="" transform="matrix(0.59154, -0.522866, 0.621898, 0.703579, -56.089794, 210.484299)"/>
  <g style="" transform="matrix(0.59154, -0.522866, 0.621898, 0.703579, -56.089794, 210.484299)"/>
  <g style="" transform="matrix(0.59154, -0.522866, 0.621898, 0.703579, -56.089794, 210.484299)"/>
  <g style="" transform="matrix(0.59154, -0.522866, 0.621898, 0.703579, -56.089794, 210.484299)"/>
  <g style="" transform="matrix(0.59154, -0.522866, 0.621898, 0.703579, -56.089794, 210.484299)"/>
  <g style="" transform="matrix(0.59154, -0.522866, 0.621898, 0.703579, -56.089794, 210.484299)"/>
  <g style="" transform="matrix(0.59154, -0.522866, 0.621898, 0.703579, -56.089794, 210.484299)"/>
  <g style="" transform="matrix(0.59154, -0.522866, 0.621898, 0.703579, -56.089794, 210.484299)"/>
  <g style="" transform="matrix(0.59154, -0.522866, 0.621898, 0.703579, -56.089794, 210.484299)"/>
  <g style="" transform="matrix(0.59154, -0.522866, 0.621898, 0.703579, -56.089794, 210.484299)"/>
  <g style="" transform="matrix(0.59154, -0.522866, 0.621898, 0.703579, -56.089794, 210.484299)"/>
  <g style="" transform="matrix(0.59154, -0.522866, 0.621898, 0.703579, -56.089794, 210.484299)"/>
</svg>