<?xml version="1.0" encoding="iso-8859-1"?>
<!-- Generator: Adobe Illustrator 21.0.0, SVG Export Plug-In . SVG Version: 6.00 Build 0)  -->
<svg xmlns="http://www.w3.org/2000/svg" xmlns:xlink="http://www.w3.org/1999/xlink" version="1.1" id="Capa_1" x="0px" y="0px" viewBox="0 0 428 512" style="enable-background:new 0 0 512 512;" xml:space="preserve" width="512" height="512">
<g>
	<path style="fill:#87553C;" d="M 409.685 183.53 L 409.575 327.35 L 409.575 497 C 409.575 505.284 402.859 512 394.575 512 L 32.575 512 C 24.291 512 17.575 505.284 17.575 497 L 17.575 15 C 17.575 6.716 24.291 0 32.575 0 L 255.011 0 C 258.895 0 262.629 1.5 265.429 4.17 L 302.575 39.65 L 302.434 15.08 C 302.414 11.09 303.99 7.25 306.82 4.42 C 309.64 1.59 313.484 0 317.489 0 L 394.52 0 C 402.83 0 409.565 6.71 409.575 14.99 L 409.685 183.53 Z"/>
	<path style="fill: rgb(114, 70, 46);" d="M 409.575 327.35 L 409.685 183.53 L 409.575 14.99 C 409.565 6.71 402.83 0 394.52 0 L 317.489 0 C 313.484 0 309.64 1.59 306.82 4.42 C 303.989 7.25 302.414 11.09 302.434 15.08 L 302.575 39.65 L 265.429 4.17 C 262.629 1.5 258.896 0 255.012 0 L 221.575 0 L 221.575 512 L 394.575 512 C 402.859 512 409.575 505.284 409.575 497 L 409.575 327.35 Z"/>
	<path style="fill:#996A4A;" d="M185.575,0v241c0,8.28-6.72,15-15,15s-15-6.72-15-15V0H185.575z"/>
	<path style="fill:#996A4A;" d="M170.575,452c-8.284,0-15-6.716-15-15V322c0-8.284,6.716-15,15-15s15,6.716,15,15v115   C185.575,445.284,178.859,452,170.575,452z"/>
	<path style="fill:#663D28;" d="M355.575,372v140h-30V372c0-8.28,6.72-15,15-15S355.575,363.72,355.575,372z"/>
	<path style="fill:#663D28;" d="M255.575,139c-8.284,0-15-6.716-15-15V63c0-8.284,6.716-15,15-15s15,6.716,15,15v61   C270.575,132.284,263.859,139,255.575,139z"/>
	<path style="fill:#663D28;" d="M340.575,317c-8.284,0-15-6.716-15-15v-67c0-8.284,6.716-15,15-15s15,6.716,15,15v67   C355.575,310.284,348.859,317,340.575,317z"/>
	<path style="fill:#663D28;" d="M255.575,342c-8.284,0-15-6.716-15-15V196c0-8.284,6.716-15,15-15s15,6.716,15,15v131   C270.575,335.284,263.859,342,255.575,342z"/>
	<path style="fill:#996A4A;" d="M100.575,0v71c0,8.28-6.72,15-15,15s-15-6.72-15-15V0H100.575z"/>
	<path style="fill:#996A4A;" d="M85.575,302c-8.284,0-15-6.716-15-15V142c0-8.284,6.716-15,15-15s15,6.716,15,15v145   C100.575,295.284,93.859,302,85.575,302z"/>
</g>














</svg>
