<?xml version="1.0" encoding="utf-8"?>
<svg viewBox="0 0 500 500" xmlns="http://www.w3.org/2000/svg" xmlns:bx="https://boxy-svg.com">
  <g transform="matrix(1, 0, 0, 1, -8.907364, 18.40855)">
    <g transform="matrix(1.313924, 0, 0, 1.363253, -451.764008, -59.028427)" style="">
      <path style="fill: rgb(199, 239, 177);" d="M 370.759 117.888 L 370.759 340.458 C 370.759 369.379 386.569 392.827 406.069 392.827 C 425.569 392.827 441.379 369.379 441.379 340.458 L 441.379 117.888 L 370.759 117.888 Z"/>
      <polygon style="fill: rgb(104, 107, 117);" points="361.764 119.172 450.373 119.172 450.373 83.862 361.764 83.862"/>
      <polygon style="fill:#D69C77;" points="441.379 83.862 370.759 83.862 353.103 39.724 459.034 39.724"/>
      <path style="fill: rgb(73, 136, 56);" d="M 406.069 392.828 L 406.069 392.828 C 386.569 392.828 370.759 377.018 370.759 357.518 L 370.759 260.415 L 441.38 260.415 L 441.38 357.518 C 441.379 377.017 425.569 392.828 406.069 392.828"/>
    </g>
    <g transform="matrix(0.906959, -0.137217, 0.140552, 0.928998, 37.941502, 56.156792)" style="">
      <polygon style="fill: rgb(246, 192, 97);" points="446.62 93.344 464.667 71.787 79.707 71.787 208.027 287.399 464.667 287.399 446.62 265.832 464.667 244.269 446.62 222.705 464.667 201.147 446.62 179.583 464.667 158.025 446.62 136.468 464.667 114.91" transform="matrix(0.803964, -0.594678, 0.594678, 0.803964, -53.441548, 197.070287)"/>
      <path style="fill: rgb(252, 201, 113);" d="M 48.054 231.658 L 48.054 374.712 C 48.054 414.301 105.818 446.4 177.067 446.4 C 248.315 446.4 306.077 414.301 306.077 374.712 L 306.077 231.336 L 48.054 231.658 Z" transform="matrix(0.887626, -0.460565, 0.460565, 0.887626, -136.173163, 119.630115)"/>
      <path style="fill: rgb(232, 159, 32);" d="M 127.541 171.734 C 56.291 171.734 -1.469 203.831 -1.469 243.425 C -1.469 243.531 -1.469 243.639 -1.459 243.744 C -1.153 283.192 56.488 315.11 127.541 315.11 C 198.79 315.11 256.549 283.015 256.549 243.425 C 256.549 203.831 198.79 171.734 127.541 171.734 Z" transform="matrix(0.887626, -0.460565, 0.460565, 0.887626, -97.779456, 86.094755)"/>
      <g style="" transform="matrix(0.894635, -0.464197, 0.257941, 0.497124, -19.991922, 239.207611)">
        <circle style="fill: rgb(242, 180, 72);" cx="201.987" cy="384" r="8.44"/>
        <circle style="fill: rgb(242, 180, 72);" cx="168.229" cy="406.506" r="8.44"/>
        <path style="fill: rgb(248, 192, 95);" d="M128,42.67c47.172,0,85.33,38.158,85.33,85.33s-38.158,85.33-85.33,85.33S42.67,175.172,42.67,128 S80.828,42.67,128,42.67z"/>
      </g>
      <g style="" transform="matrix(0.894635, -0.464197, 0.257941, 0.497124, -19.991922, 239.207611)">
        <path style="fill: rgb(232, 159, 32);" d="M128,85.33c23.586,0,42.67,19.085,42.67,42.67s-19.085,42.67-42.67,42.67S85.33,151.586,85.33,128 S104.414,85.33,128,85.33z"/>
        <circle style="fill: rgb(232, 159, 32);" cx="418.04" cy="75.675" r="8.44"/>
      </g>
    </g>
    <g transform="matrix(0.921193, -0.190857, 0.217696, 0.958475, 111.854836, 33.371273)" style="">
      <path style="fill: rgb(71, 164, 81);" d="M252.899,512.002c-4.504,0-8.313-3.471-8.643-8.036c-7.706-104.222,3.662-160.516,11.186-197.762 c8.669-42.947,12.635-62.551-18.276-109.698c-2.629-4.009-1.51-9.39,2.499-12.019c4.009-2.629,9.39-1.519,12.019,2.499 c34.816,53.118,29.826,77.815,20.766,122.654c-7.775,38.487-18.415,91.205-10.891,193.041c0.356,4.782-3.237,8.947-8.01,9.294 C253.333,511.994,253.116,512.002,252.899,512.002"/>
      <g>
        <path style="fill: rgb(106, 195, 113);" d="M 244.276 424.448 C 244.276 361.275 213.229 243.168 166.216 243.168 C 133.357 351.09 180.114 424.448 244.276 424.448" transform="matrix(0.987774, -0.155891, 0.155891, 0.987774, -49.594393, 35.235474)"/>
        <path style="fill: rgb(106, 195, 113);" d="M270.264,277.697c-1.927,0-3.81-0.642-5.346-1.84c-2.013-1.579-3.237-3.966-3.332-6.517 c-2.994-81.868,59.184-115.538,118.376-119.747c2.3-0.148,4.565,0.599,6.3,2.1c1.736,1.51,2.803,3.645,2.968,5.944 c0.876,12.314-16.419,98.807-117.187,119.877C271.453,277.636,270.854,277.697,270.264,277.697"/>
        <path style="fill: rgb(106, 195, 113);" d="M244.332,200.401c-0.963,0-1.927-0.165-2.846-0.495c-65.38-23.535-89.183-69.068-97.644-103.12 c-10.865-43.728-0.946-85.001,7.194-93.948c2.291-2.517,5.84-3.463,9.068-2.421c18.701,6.014,115.252,67.098,92.898,192.738 c-0.061,0.347-0.148,0.694-0.252,1.033c-0.694,2.265-2.308,4.209-4.434,5.268C247.074,200.071,245.703,200.401,244.332,200.401"/>
      </g>
      <g>
        <path style="fill: rgb(71, 164, 81);" d="M270.264,277.697c-2.187,0-4.382-0.824-6.075-2.482c-3.419-3.35-3.48-8.843-0.121-12.271 l53.404-54.524c3.358-3.428,8.852-3.48,12.271-0.13c3.428,3.35,3.489,8.843,0.13,12.271l-53.413,54.532 C274.768,276.829,272.512,277.697,270.264,277.697"/>
        <path style="fill: rgb(71, 164, 81);" d="M244.467,200.311c-3.15,0-6.187-1.718-7.732-4.712l-39.224-76.436 c-2.196-4.261-0.503-9.494,3.758-11.681c4.261-2.204,9.494-0.503,11.681,3.758l39.233,76.427c2.187,4.27,0.503,9.502-3.758,11.689 C247.157,200.008,245.795,200.311,244.467,200.311"/>
        <path style="fill: rgb(71, 164, 81);" d="M 192.708 388.566 C 190.348 388.566 188.145 387.802 186.651 386.267 C 183.635 383.165 184.671 378.075 188.982 374.9 L 257.539 324.388 C 261.847 321.214 267.786 321.165 270.802 324.269 C 273.828 327.371 272.793 332.46 268.48 335.637 L 199.914 386.156 C 197.741 387.763 195.132 388.566 192.708 388.566" transform="matrix(0.033383, 0.999443, -0.999443, 0.033383, 571.014952, 137.447587)" bx:origin="0.337 0.63"/>
      </g>
    </g>
  </g>
</svg>