<?xml version="1.0" encoding="utf-8"?>
<svg viewBox="0 0 500 500" xmlns="http://www.w3.org/2000/svg">
  <defs>
    <path id="path-0" d="M 38.07 256.248 L 46.25 253.36 C 49.747 248.99 56.042 246.471 60.687 243.255" style="fill: none;"/>
    <path id="path-1" d="M 61.168 243.255 C 102.81 224.599 122.693 189.377 161.26 179.735 C 184.441 179.735 201.803 186.863 211.787 205.721 C 214.929 211.655 212.908 219.935 214.193 225.931 C 214.193 254.889 221.768 269.722 244.509 269.722 C 286.694 269.722 299.952 257.51 315.247 230.743 C 321.837 213.382 330.105 187.96 339.789 180.698 C 343.894 177.619 346.294 179.552 351.338 178.292 C 380.209 181.072 385.398 190.273 389.835 212.457 C 394.286 227.074 397.774 235.796 404.271 242.293 C 413.619 252.121 420.528 246.051 428.332 240.849 L 431.219 236.518 C 437.062 228.171 450.467 207.376 450.467 196.578" style="fill: none;"/>
    <path id="path-2" style="fill: none;" d="M 194.199 141.355 C 248.69 122.553 278.508 121.585 303.118 129.306 C 318.885 134.252 332.317 143.857 346.493 151.957 L 349.385 153.885"/>
  </defs>
  <g transform="matrix(1.470426, 0, 0.000002, 1.739519, -113.833824, -1379.282959)" style="">
    <path style="stroke: rgba(186, 82, 82, 0); fill: rgb(142, 149, 148);" d="M 139.194 865.482 L 109.96 921.495 L 99.75 939.28 C 99.75 939.28 77.064 982.625 77.877 984.25 C 78.69 985.875 99.025 1042.195 100.65 1044.633 C 102.275 1047.071 218.799 1075.658 218.799 1075.658 L 386.989 1055.346 L 417.213 1010.453 L 403.588 936.349 L 392.635 873.599 L 294.723 817.881 L 215.793 827.152 L 139.194 865.482 Z"/>
    <path style="fill: rgb(216, 216, 216); stroke: rgba(0, 0, 0, 0); mix-blend-mode: soft-light;" d="M 109.967 921.496 L 124.363 961.781 C 124.363 961.781 193.717 1006.786 194.477 1006.786 C 195.237 1006.786 359.709 981.924 359.709 981.924 L 408.793 964.589 L 403.577 936.331 L 392.637 873.619 L 294.73 817.882 L 215.79 827.165 L 139.186 866.137 L 109.967 921.496 Z"/>
    <path style="stroke: rgba(0, 0, 0, 0); mix-blend-mode: soft-light; fill: rgb(216, 216, 216);" d="M 215.799 827.165 L 210.675 866.121 L 249.676 881.558 L 278.927 898.621 L 334.177 884.809 C 334.177 884.809 387.359 903.39 388.172 903.39 C 388.985 903.39 392.647 873.618 392.647 873.618 L 294.724 817.885 L 215.799 827.165 Z"/>
    <path style="stroke: rgba(0, 0, 0, 0); fill: rgb(216, 216, 216); mix-blend-mode: soft-light;" d="M 139.198 865.485 C 139.198 865.485 185.267 913.014 189.33 916.264 C 191.384 917.907 267.714 923.451 267.714 923.451 L 330.114 920.559 C 330.114 920.559 377.24 955.497 378.865 955.497 C 380.49 955.497 403.599 936.353 403.599 936.353 L 412.334 983.937 L 407.019 1000.892 L 351.575 996.883 L 225.665 1036.947 C 225.665 1036.947 139.43 1010.544 138.617 1010.544 C 137.804 1010.544 102.563 976.365 102.563 976.365 L 99.753 939.285 L 109.96 921.482 L 139.198 865.485 Z"/>
  </g>
</svg>