<?xml version="1.0" encoding="utf-8"?>
<svg version="1.1" id="Layer_1" x="0px" y="0px" viewBox="0 0 511.982 511.982" style="enable-background:new 0 0 511.982 511.982;" xmlns="http://www.w3.org/2000/svg">
  <g transform="matrix(0.840669, -0.796693, 0.687867, 0.725837, -101.063881, 306.803711)" style="">
    <g>
      <path style="fill: rgb(215, 155, 102);" d="M117.324,314.661c95.997,0,180.853-106.668,180.853-106.668s-84.856-106.652-180.853-106.652 c-58.904,0-106.652,47.748-106.652,106.652C10.671,266.913,58.419,314.661,117.324,314.661z M117.324,165.338 c23.921,0,54.28,13.672,85.451,38.499c1.703,1.359,3.406,2.75,5.109,4.156c-1.703,1.422-3.406,2.812-5.109,4.156 c-31.171,24.843-61.529,38.514-85.451,38.514c-23.515,0-42.654-19.14-42.654-42.67C74.669,184.478,93.809,165.338,117.324,165.338z "/>
      <path style="fill: rgb(215, 155, 102);" d="M117.324,282.661c39.905,0,79.341-24.732,105.387-45.482c12.89-10.25,23.89-20.625,32.312-29.187 c-8.422-8.546-19.421-18.921-32.312-29.186c-26.046-20.734-65.482-45.468-105.387-45.468c-41.17,0-74.654,33.499-74.654,74.654 C42.67,249.179,76.153,282.661,117.324,282.661z M117.324,165.338c23.921,0,54.28,13.672,85.451,38.499 c1.703,1.359,3.406,2.75,5.109,4.156c-1.703,1.422-3.406,2.812-5.109,4.156c-31.171,24.843-61.529,38.514-85.451,38.514 c-23.515,0-42.654-19.14-42.654-42.67C74.669,184.478,93.809,165.338,117.324,165.338z"/>
    </g>
    <g>
      <path style="fill: rgb(192, 126, 73);" d="M117.324,90.668c23.468,0,48.124,5.953,73.264,17.672c19.764,9.202,39.889,21.999,59.841,38.014 c33.749,27.093,55.201,53.873,56.092,55.014l5.297,6.625l-5.297,6.656c-0.891,1.125-22.343,27.906-56.092,54.999 c-19.953,16.014-40.077,28.811-59.841,38.014c-25.14,11.734-49.795,17.672-73.264,17.672C52.639,325.334,0,272.695,0,207.994 C0,143.307,52.638,90.668,117.324,90.668z M284.178,207.992c-8.281-9.406-25.171-27.452-47.452-45.28 c-28.889-23.14-73.044-50.717-119.402-50.717c-52.936,0-95.997,43.077-95.997,95.997c0,52.936,43.061,95.997,95.997,95.997 c46.358,0,90.513-27.561,119.402-50.686C259.007,235.46,275.896,217.414,284.178,207.992z"/>
      <path style="fill: rgb(192, 126, 73);" d="M117.324,122.667c42.983,0,84.654,25.999,112.027,47.795c11.359,9.047,22.546,19.156,33.281,30.062 l7.359,7.468l-7.359,7.484c-10.734,10.906-21.921,21.015-33.281,30.046c-27.374,21.812-69.044,47.81-112.027,47.81 c-47.045,0-85.325-38.279-85.325-85.34C31.998,160.947,70.279,122.667,117.324,122.667z M239.851,207.992 c-7.781-7.437-15.75-14.437-23.781-20.843c-44.795-35.655-78.419-43.155-98.747-43.155c-35.28,0-63.998,28.718-63.998,63.998 c0,35.296,28.718,63.999,63.998,63.999c20.328,0,53.952-7.484,98.747-43.156C224.117,222.429,232.07,215.445,239.851,207.992z"/>
      <path style="fill: rgb(192, 126, 73);" d="M117.324,154.666c26.327,0,59.029,14.5,92.09,40.827c1.75,1.406,3.531,2.844,5.281,4.312 l9.859,8.187l-9.859,8.203c-1.734,1.453-3.516,2.906-5.281,4.297c-33.061,26.343-65.763,40.843-92.09,40.843 c-29.405,0-53.326-23.921-53.326-53.342C63.997,178.588,87.919,154.666,117.324,154.666z M190.743,207.992 c-27.328-20.671-53.217-31.999-73.42-31.999c-17.64,0-31.999,14.358-31.999,31.999c0,17.655,14.359,31.999,31.999,31.999 C137.526,239.991,163.416,228.679,190.743,207.992z"/>
    </g>
    <g>
      <path style="fill: rgb(215, 155, 102);" d="M394.658,101.34c-95.997,0-180.854,106.652-180.854,106.652s84.857,106.669,180.854,106.669 c58.904,0,106.652-47.748,106.652-106.668C501.31,149.088,453.562,101.34,394.658,101.34z M394.658,250.663 c-23.922,0-54.278-13.671-85.45-38.514c-1.703-1.344-3.406-2.734-5.109-4.156c1.703-1.406,3.406-2.796,5.109-4.156 c31.172-24.827,61.528-38.499,85.45-38.499c23.515,0,42.654,19.14,42.654,42.655C437.312,231.523,418.173,250.663,394.658,250.663z "/>
      <path style="fill: rgb(215, 155, 102);" d="M394.658,133.339c-39.905,0-79.341,24.733-105.387,45.468c-12.891,10.265-23.89,20.64-32.312,29.186 c8.422,8.562,19.421,18.937,32.312,29.187c26.046,20.75,65.481,45.482,105.387,45.482c41.17,0,74.654-33.482,74.654-74.668 C469.312,166.838,435.828,133.339,394.658,133.339z M394.658,250.663c-23.922,0-54.278-13.671-85.45-38.514 c-1.703-1.344-3.406-2.734-5.109-4.156c1.703-1.406,3.406-2.796,5.109-4.156c31.172-24.827,61.528-38.499,85.45-38.499 c23.515,0,42.654,19.14,42.654,42.655C437.312,231.523,418.173,250.663,394.658,250.663z"/>
    </g>
    <g>
      <path style="fill: rgb(192, 126, 73);" d="M394.658,325.333c-23.469,0-48.123-5.938-73.263-17.672c-19.766-9.203-39.89-22-59.842-38.014 c-33.75-27.093-55.201-53.874-56.092-54.999l-5.297-6.656l5.297-6.625c0.891-1.141,22.342-27.921,56.092-55.014 c19.952-16.016,40.076-28.812,59.842-38.014c25.14-11.719,49.794-17.672,73.263-17.672c64.686,0,117.324,52.639,117.324,117.324 C511.982,272.694,459.344,325.333,394.658,325.333z M227.804,207.992c8.281,9.421,25.171,27.468,47.452,45.311 c28.89,23.125,73.045,50.686,119.402,50.686c52.92,0,95.997-43.061,95.997-95.997c0-52.92-43.077-95.997-95.997-95.997 c-46.357,0-90.513,27.577-119.402,50.717C252.975,180.541,236.085,198.587,227.804,207.992z"/>
      <path style="fill: rgb(192, 126, 73);" d="M394.658,293.333c-42.982,0-84.653-25.998-112.027-47.81c-11.358-9.031-22.546-19.141-33.28-30.046 l-7.36-7.485l7.359-7.468c10.734-10.906,21.922-21.015,33.28-30.062c27.374-21.796,69.045-47.795,112.027-47.795 c47.045,0,85.325,38.28,85.325,85.325C479.983,255.053,441.703,293.333,394.658,293.333z M272.132,207.992 c7.78,7.468,15.749,14.453,23.779,20.843c44.797,35.672,78.419,43.156,98.747,43.156c35.279,0,63.998-28.703,63.998-63.999 c0-35.28-28.719-63.998-63.998-63.998c-20.328,0-53.95,7.5-98.747,43.155C287.865,193.571,279.912,200.555,272.132,207.992z"/>
      <path style="fill: rgb(192, 126, 73);" d="M394.658,261.335c-26.328,0-59.028-14.5-92.091-40.843c-1.75-1.391-3.531-2.828-5.281-4.297 l-9.858-8.203l9.858-8.187c1.734-1.453,3.516-2.906,5.281-4.312c33.062-26.327,65.763-40.827,92.091-40.827 c29.405,0,53.326,23.921,53.326,53.326C447.984,237.413,424.063,261.335,394.658,261.335z M321.239,207.992 c27.327,20.687,53.216,31.999,73.419,31.999c17.64,0,31.998-14.344,31.998-31.999c0-17.64-14.358-31.999-31.998-31.999 C374.455,175.994,348.566,187.322,321.239,207.992z"/>
    </g>
    <path style="fill: rgb(215, 155, 102);" d="M 239.991 90.668 C 231.147 90.668 223.991 97.84 223.991 106.668 L 223.991 309.333 C 223.991 318.161 231.147 325.333 239.991 325.333 C 248.834 325.333 255.991 318.161 255.991 309.333 L 255.991 106.668 C 255.991 97.84 248.835 90.668 239.991 90.668 Z"/>
    <path style="fill: rgb(192, 126, 73);" d="M 239.991 335.989 C 225.288 335.989 213.32 324.036 213.32 309.333 L 213.32 106.668 C 213.32 91.965 225.288 79.997 239.991 79.997 C 254.694 79.997 266.662 91.965 266.662 106.668 L 266.662 309.333 C 266.663 324.036 254.694 335.989 239.991 335.989 Z M 239.991 101.34 C 237.053 101.34 234.663 103.731 234.663 106.668 L 234.663 309.333 C 234.663 312.271 237.054 314.661 239.991 314.661 C 242.928 314.661 245.319 312.27 245.319 309.333 L 245.319 106.668 C 245.319 103.731 242.929 101.34 239.991 101.34 Z"/>
    <path style="fill: rgb(215, 155, 102);" d="M 207.993 90.668 C 199.149 90.668 191.993 97.84 191.993 106.668 L 191.993 309.333 C 191.993 318.161 199.149 325.333 207.993 325.333 C 216.836 325.333 223.992 318.161 223.992 309.333 L 223.992 106.668 C 223.992 97.84 216.836 90.668 207.993 90.668 Z"/>
    <path style="fill: rgb(192, 126, 73);" d="M 207.993 335.989 C 193.29 335.989 181.322 324.036 181.322 309.333 L 181.322 106.668 C 181.322 91.965 193.29 79.997 207.993 79.997 C 222.695 79.997 234.663 91.965 234.663 106.668 L 234.663 309.333 C 234.663 324.036 222.695 335.989 207.993 335.989 Z M 207.993 101.34 C 205.055 101.34 202.665 103.731 202.665 106.668 L 202.665 309.333 C 202.665 312.271 205.056 314.661 207.993 314.661 C 210.93 314.661 213.32 312.27 213.32 309.333 L 213.32 106.668 C 213.32 103.731 210.929 101.34 207.993 101.34 Z"/>
    <path style="fill: rgb(215, 155, 102);" d="M 271.991 90.668 C 263.147 90.668 255.991 97.84 255.991 106.668 L 255.991 309.333 C 255.991 318.161 263.147 325.333 271.991 325.333 C 280.834 325.333 287.99 318.161 287.99 309.333 L 287.99 106.668 C 287.99 97.84 280.834 90.668 271.991 90.668 Z"/>
    <path style="fill: rgb(192, 126, 73);" d="M 271.991 335.989 C 257.288 335.989 245.319 324.036 245.319 309.333 L 245.319 106.668 C 245.319 91.965 257.288 79.997 271.991 79.997 C 286.693 79.997 298.661 91.965 298.661 106.668 L 298.661 309.333 C 298.661 324.036 286.693 335.989 271.991 335.989 Z M 271.991 101.34 C 269.053 101.34 266.663 103.731 266.663 106.668 L 266.663 309.333 C 266.663 312.271 269.054 314.661 271.991 314.661 C 274.928 314.661 277.318 312.27 277.318 309.333 L 277.318 106.668 C 277.318 103.731 274.928 101.34 271.991 101.34 Z"/>
    <path style="fill: rgb(215, 155, 102);" d="M 303.989 90.668 C 295.145 90.668 287.99 97.84 287.99 106.668 L 287.99 405.329 C 287.99 414.157 295.145 421.329 303.989 421.329 C 312.833 421.329 319.989 414.157 319.989 405.329 L 319.989 106.668 C 319.989 97.84 312.833 90.668 303.989 90.668 Z"/>
    <path style="fill: rgb(192, 126, 73);" d="M 303.989 431.985 C 289.287 431.985 277.318 420.032 277.318 405.329 L 277.318 106.668 C 277.318 91.965 289.287 79.997 303.989 79.997 C 318.692 79.997 330.661 91.965 330.661 106.668 L 330.661 405.329 C 330.661 420.032 318.692 431.985 303.989 431.985 Z M 303.989 101.34 C 301.051 101.34 298.661 103.731 298.661 106.668 L 298.661 405.329 C 298.661 408.267 301.052 410.657 303.989 410.657 C 306.926 410.657 309.317 408.266 309.317 405.329 L 309.317 106.668 C 309.317 103.731 306.927 101.34 303.989 101.34 Z"/>
    <g/>
    <g/>
    <g/>
    <g/>
    <g/>
    <g/>
    <g/>
    <g/>
    <g/>
    <g/>
    <g/>
    <g/>
    <g/>
    <g/>
    <g/>
  </g>
</svg>