<?xml version="1.0" encoding="utf-8"?>
<svg version="1.1" id="Layer_1" x="0px" y="0px" viewBox="0 0 511.999 511.999" style="enable-background:new 0 0 511.999 511.999;" xmlns="http://www.w3.org/2000/svg">
  <g>
    <path style="fill: rgb(150, 111, 51);" d="M85.156,410.132C65.867,390.844,50.675,370.447,40.5,351.55l-21.709,21.709 c-8.145,8.145,8.36,37.86,36.864,66.374c28.514,28.504,58.228,45.009,66.374,36.864l21.709-21.709 C124.841,444.613,104.444,429.42,85.156,410.132L85.156,410.132z"/>
    <path style="fill: rgb(228, 52, 52);" d="M 369.054 501.213 C 331.152 501.213 300.302 469.04 300.302 429.491 C 300.302 412.545 287.082 398.753 270.838 398.753 C 249.17 398.753 231.55 380.373 231.55 357.77 C 231.55 352.114 235.94 347.525 241.372 347.525 C 246.804 347.525 251.194 352.115 251.194 357.77 C 251.194 369.072 260.004 378.261 270.838 378.261 C 297.916 378.261 319.945 401.243 319.945 429.491 C 319.945 457.739 341.975 480.721 369.053 480.721 C 396.131 480.721 418.162 457.739 418.162 429.491 C 418.162 401.243 396.131 378.261 369.053 378.261 C 363.621 378.261 359.231 373.671 359.231 368.016 C 359.231 362.359 363.621 357.77 369.053 357.77 C 406.955 357.77 437.805 389.943 437.805 429.492 C 437.805 469.041 406.956 501.213 369.054 501.213" transform="matrix(0.99204, -0.12592, 0.12592, 0.99204, -50.772729, 45.520483)"/>
    <path style="fill: rgb(252, 86, 86);" d="M210.516,461.751l265.467-265.467c-20.359,20.359-76.483-2.746-125.356-51.619 S278.64,39.667,299.008,19.299L33.541,284.776c-20.368,20.359,2.746,76.484,51.619,125.356 C134.023,459.005,190.157,482.11,210.516,461.751"/>
    <path style="fill: rgb(188, 150, 94);" d="M 486.417 110.874 C 474.203 123.088 441.184 109.887 412.68 81.373 C 384.166 52.869 370.966 19.849 383.18 7.636 C 395.394 -4.577 428.413 8.623 456.917 37.137 C 485.431 65.641 498.631 98.661 486.417 110.874"/>
    <path style="fill: rgb(150, 111, 51);" d="M 413.909 80.761 C 385.405 52.257 372.195 19.237 384.408 7.024 L 340.171 51.261 C 332.026 59.406 348.531 89.121 377.035 117.635 C 405.549 146.139 435.263 162.644 443.409 154.499 L 487.646 110.262 C 475.433 122.475 442.414 109.266 413.909 80.761"/>
    <g>
      <path style="fill: rgb(228, 52, 52);" d="M 466.555 131.355 L 444.027 153.883 C 435.882 162.028 406.167 145.523 377.653 117.019 C 349.149 88.505 332.644 58.791 340.789 50.645 L 363.317 28.117 C 334.319 12.515 308.868 8.829 296.543 21.154 C 276.175 41.513 299.289 97.637 348.162 146.51 C 397.035 195.383 453.159 218.497 473.518 198.129 C 485.843 185.804 482.157 160.353 466.555 131.355"/>
      <path style="fill: rgb(228, 52, 52);" d="M185.878,132.43l-13.675,13.675l126.064,224.34l8.118-4.561l6.833-6.833L185.878,132.43z"/>
      <path style="fill: rgb(228, 52, 52);" d="M458.391,213.877l-267.85-63.525l-4.291,18.116l256.67,60.881L458.391,213.877z"/>
      <path style="fill: rgb(228, 52, 52);" d="M372.252,164.202c-7.27-5.958-14.531-12.437-21.625-19.54c-2.532-2.532-4.952-5.092-7.345-7.661 l-127.265-34.704l-15.165,15.155L372.252,164.202z"/>
      <path style="fill: rgb(228, 52, 52);" d="M227.664,216.785l-4.803,17.994l169.37,45.252l15.211-15.211L227.664,216.785z"/>
      <path style="fill: rgb(228, 52, 52);" d="M264.282,283.085l-4.292,18.116l89.823,21.253l15.472-15.472L264.282,283.085z"/>
      <path style="fill: rgb(228, 52, 52);" d="M211.455,346.176l16.561-8.509l-83.931-163.44l-13.833,13.824L211.455,346.176z"/>
      <path style="fill: rgb(228, 52, 52);" d="M131.673,323.999l16.691-8.257l-48.24-97.559l-13.898,13.898L131.673,323.999z"/>
      <path style="fill: rgb(228, 52, 52);" d="M298.327,373.94l15.016-15.016L39.525,278.792l-5.986,5.976c-2.709,2.709-4.599,6.097-5.809,9.97 L298.327,373.94z"/>
      <path style="fill: rgb(228, 52, 52);" d="M247.339,424.928l15.053-15.053L37.363,345.577c3.677,7.512,8.294,15.323,13.601,23.245 L247.339,424.928z"/>
    </g>
  </g>
  <g/>
  <g/>
  <g/>
  <g/>
  <g/>
  <g/>
  <g/>
  <g/>
  <g/>
  <g/>
  <g/>
  <g/>
  <g/>
  <g/>
  <g/>
</svg>