<?xml version="1.0" encoding="utf-8"?>
<svg viewBox="0 0 500 500" xmlns="http://www.w3.org/2000/svg">
  <g transform="matrix(4.398353, -5.508059, 5.610021, 4.479764, -174.697769, 273.23407)" style="">
    <path style="fill:#A5A5A4;" d="M 25.901 14.214 L 37.391 2.724 C 40.794 -0.679 46.716 -0.679 50.119 2.724 L 51.003 3.608 C 54.406 7.011 54.406 12.579 51.003 15.982 L 39.513 27.472 L 39.033 26.415 C 36.505 20.854 31.573 16.483 25.901 14.214 L 25.901 14.214 Z"/>
    <path style="fill:#715C3A;" d="M10.607,53.552v-7.071l25.256-25.256c-1.075-1.274-2.286-2.436-3.602-3.469L7.071,42.946H0l0,5.291 h5.315l0,5.315L10.607,53.552z"/>
  </g>
  <g transform="matrix(7.031804, -2.956629, 3.016063, 7.173158, 56.748123, 112.514336)" style="">
    <path style="fill:#A5A5A4;" d="M49.064,31.4l-0.723-16.622c-0.041-0.942-0.434-1.835-1.101-2.502L42.044,7.08L36.79,1.826 c-0.667-0.667-1.56-1.06-2.502-1.101L17.666,0.002c0,0-3.572-0.229-3.932,3.932c0,0-0.754,3.703,3.932,3.932h11.021 c1,0,1.959,0.397,2.666,1.104l4.401,4.401l4.342,4.342c0.707,0.707,1.104,1.666,1.104,2.666V31.4 c0.229,4.686,3.932,3.932,3.932,3.932C49.293,34.971,49.064,31.4,49.064,31.4z"/>
    <g>
      <path style="fill:#715C3A;" d="M42.044,7.08l2.359,2.359l1.236-1.236c0.626-0.626,0.977-1.474,0.977-2.359v0 c0-1.843-1.494-3.336-3.336-3.336h0c-0.885,0-1.733,0.352-2.359,0.977l-1.236,1.236L42.044,7.08z"/>
      <path style="fill:#715C3A;" d="M35.753,13.371l-2.359-2.359L1.006,43.4c-1.303,1.303-1.303,3.415,0,4.718l0,0 c1.303,1.303,3.415,1.303,4.718,0L38.113,15.73L35.753,13.371z"/>
    </g>
  </g>
  <g transform="matrix(-0.420445, -0.347706, -0.358367, 0.433338, 467.284271, 262.821381)" style="">
    <path style="fill:#C17C3E;" d="M 333.683 122.438 L 370.759 159.514 C 374.29 163.045 379.587 163.045 383.118 159.514 C 385.766 156.866 391.063 155.983 393.711 157.748 C 376.055 176.286 115.641 446.41 75.035 487.9 C 71.504 491.431 67.09 493.197 62.676 493.197 L 51.2 493.197 C 22.952 493.197 0 470.245 0 441.997 L 0 438.466 C 0 434.052 1.766 429.638 5.297 426.107 L 325.738 113.61 C 329.269 118.024 331.917 120.672 333.683 122.438 L 333.683 122.438 Z"/>
    <path style="fill: rgb(165, 165, 164);" d="M 217.467 48.243 C 266.901 6.753 346.35 12.05 392.253 57.953 L 432.86 99.443 C 436.391 102.974 436.391 108.271 432.86 111.802 C 429.329 115.333 429.329 120.63 432.86 124.161 L 457.577 148.878 C 461.108 152.409 466.405 152.409 469.936 148.878 C 473.467 145.347 478.764 145.347 482.295 148.878 L 504.364 170.947 C 513.192 179.775 513.192 193.899 504.364 201.844 L 473.467 232.741 C 464.639 241.569 450.515 241.569 442.57 232.741 L 420.501 210.672 C 416.97 207.141 416.97 201.844 420.501 198.313 C 424.032 194.782 424.032 189.485 420.501 185.954 L 395.784 161.237 C 392.253 157.706 386.956 157.706 383.425 161.237 L 383.425 161.237 C 379.894 164.768 374.597 164.768 371.066 161.237 L 333.99 124.161 C 325.162 115.333 297.797 90.616 286.321 85.32 C 264.252 74.727 239.535 71.196 214.818 75.61 L 212.17 76.493 C 203.342 78.259 198.046 68.548 203.342 61.486 C 207.757 57.07 212.171 52.656 217.467 48.243"/>
  </g>
  <g id="XMLID_803_" transform="matrix(0.988182, 0.153298, -0.153298, 0.988182, 46.160595, 230.303375)">
    <path id="XMLID_804_" style="fill: rgb(173, 117, 53);" d="M340,0v180h120V0H340z M420,140h-40V40h40V140z"/>
    <g>
      <rect id="XMLID_810_" style="fill: rgb(217, 204, 188);" width="173.452" height="120" x="1"/>
      <rect id="XMLID_808_" x="170" style="fill: rgb(217, 204, 188);" width="170" height="120"/>
    </g>
    <g>
      <path id="XMLID_809_" style="fill: rgb(235, 229, 221);" d="M 1 117.67 L 1 175.263 L 34.573 144.679 L 69.146 180 L 103.71 144.679 L 138.273 180 L 172.836 144.679 C 172.856 144.7 172.856 117.67 172.856 117.67 L 1 117.67 Z"/>
      <polygon id="XMLID_807_" style="fill: rgb(235, 229, 221);" points="170 118.318 170 145.067 204.18 180 238.37 145.047 272.57 180 306.77 145.047 340 179.424 340 118.318"/>
    </g>
  </g>
</svg>