<?xml version="1.0" encoding="utf-8"?>
<svg viewBox="0 0 500 500" xmlns="http://www.w3.org/2000/svg">
  <g transform="matrix(0.924592, 0.16034, -0.158266, 0.91263, 118.978935, -6.009717)" style="">
    <g transform="matrix(1, 0, 0, 1, -12.670857, -12.064453)">
      <path style="opacity:0.2;fill:#FFFFFF;enable-background:new    ;" d="M423.154,213.325c5.609-8.765,20.468-28.375,19.405-50.343 c-1.219-25.406-11-46.64-29.89-64.905c-16.172-15.625-36.625-27.187-58.297-39.421c-26.749-15.109-54.404-30.733-73.732-54.687 C278.624,1.453,275.562,0,272.343,0h-10.672c3.234,0,6.281,1.453,8.312,3.969c19.312,23.953,46.969,39.578,73.718,54.687 c21.671,12.234,42.14,23.797,58.296,39.421c18.891,18.265,28.671,39.5,29.905,64.905c1.047,21.968-13.812,41.578-19.405,50.343 v85.327c5.594,8.766,20.452,28.375,19.405,50.342c-1.234,25.422-11.015,46.656-29.905,64.922 c-16.156,15.625-36.625,27.172-58.296,39.42c-26.749,15.109-54.405,30.734-73.718,54.688c-2.031,2.5-5.078,3.969-8.312,3.969 h10.672c3.219,0,6.281-1.469,8.297-3.969c19.312-23.953,46.983-39.578,73.732-54.688c21.656-12.248,42.125-23.795,58.297-39.42 c18.89-18.266,28.671-39.5,29.89-64.922c1.062-21.967-13.796-41.576-19.405-50.342V213.325z"/>
    </g>
    <path style="fill:#E6E9ED;" d="M 239.829 467.834 C 233.938 467.834 229.157 463.068 229.157 457.178 L 229.157 30.686 C 229.157 24.796 233.938 20.015 239.829 20.015 C 245.719 20.015 250.485 24.796 250.485 30.686 L 250.485 457.178 C 250.485 463.069 245.72 467.834 239.829 467.834 Z"/>
    <path style="fill:#965353;" d="M 410.483 201.261 C 416.092 192.496 430.951 172.886 429.888 150.918 C 428.669 125.512 418.888 104.278 399.998 86.013 C 383.826 70.388 363.373 58.826 341.701 46.592 C 314.952 31.483 287.297 15.859 267.969 -8.095 C 265.953 -10.611 262.891 -12.064 259.672 -12.064 L 229.157 -12.064 C 223.532 -12.064 218.876 -7.705 218.517 -2.08 C 217.298 16.732 225.829 34.295 244.594 51.607 C 259.766 65.591 279.75 77.826 299.063 89.653 C 328.703 107.778 359.342 126.528 360.483 145.683 C 361.733 166.776 347.827 193.698 347.702 193.948 C 346.89 195.479 346.483 197.182 346.483 198.901 L 346.483 288.947 C 346.483 290.666 346.889 292.369 347.686 293.9 C 347.827 294.166 361.733 321.07 360.483 342.164 C 359.342 361.32 328.703 380.07 299.063 398.211 C 279.751 410.039 259.766 422.258 244.594 436.258 C 225.829 453.553 217.298 471.115 218.517 489.944 C 218.876 495.553 223.532 499.928 229.157 499.928 L 259.672 499.928 C 262.891 499.928 265.953 498.459 267.969 495.959 C 287.281 472.006 314.952 456.381 341.701 441.271 C 363.357 429.023 383.826 417.476 399.998 401.851 C 418.888 383.585 428.669 362.351 429.888 336.929 C 430.95 314.962 416.092 295.353 410.483 286.587 L 410.483 201.261 Z"/>
    <rect x="346.485" y="201.262" style="fill:#ED5564;" width="64" height="85.33"/>
    <rect x="346.485" y="233.262" style="fill:#DA4453;" width="64" height="21.328"/>
  </g>
  <g transform="matrix(0.37813, -0.561776, 0.572339, 0.38524, -113.296913, 239.830902)" style="">
    <path style="fill:#ED5564;" d="M 71.187 371.954 C 71.187 369.126 70.062 366.408 68.062 364.408 L 37.891 334.236 C 33.727 330.065 26.969 330.065 22.805 334.236 L -73.154 430.204 C -77.318 434.36 -77.318 441.11 -73.154 445.282 L -42.983 475.453 C -38.819 479.608 -32.062 479.608 -27.898 475.453 L 68.061 379.485 C 70.062 377.486 71.187 374.782 71.187 371.954 Z"/>
    <path style="fill:#CCD1D9;" d="M 380.439 97.296 C 381.845 95.882 382.83 94.093 383.283 92.148 L 401.361 13.743 C 402.173 10.157 401.095 6.407 398.502 3.805 C 395.909 1.203 392.143 0.125 388.564 0.953 L 310.16 19.015 C 308.207 19.468 306.426 20.453 305.019 21.867 L 30.352 296.519 C 26.188 300.691 26.188 307.441 30.352 311.613 L 90.687 371.955 C 92.687 373.955 95.406 375.08 98.233 375.08 C 101.061 375.08 103.772 373.955 105.772 371.955 L 380.439 97.296 Z"/>
    <path style="fill:#AAB2BC;" d="M 60.515 341.783 C 56.351 337.611 56.351 330.862 60.515 326.69 L 253.753 133.466 C 257.925 129.302 264.675 129.302 268.831 133.466 C 273.003 137.63 273.003 144.388 268.831 148.552 L 75.601 341.782 C 71.437 345.94 64.687 345.94 60.515 341.783 Z"/>
    <g transform="matrix(1, 0, 0, 1, -110.365181, 0.678675)">
      <path style="fill:#DA4453;" d="M77.249,389.478h90.506l10.672-10.672c2-2,3.125-4.703,3.125-7.531c0-1.078-0.164-2.125-0.469-3.125 H98.584L77.249,389.478z"/>
      <path style="fill:#DA4453;" d="M143.842,413.4H53.328l-16.117,16.125c-1.484,1.484-2.43,3.297-2.859,5.203h88.155L143.842,413.4z"/>
    </g>
    <g transform="matrix(1, 0, 0, 1, -110.365181, 0.678675)">
      <path style="fill:#FFCE54;" d="M253.848,393.9L118.084,258.138c-4.164-4.164-10.914-4.164-15.078,0l-22.632,22.624 c-4.164,4.172-4.164,10.922,0,15.078l135.763,135.764c2,2,4.711,3.125,7.539,3.125c2.836,0,5.547-1.125,7.547-3.125l22.625-22.625 C258.011,404.822,258.011,398.057,253.848,393.9z"/>
      <path style="fill:#FFCE54;" d="M85.327,469.321c0-11.391-4.438-22.108-12.492-30.171c-16.64-16.641-43.702-16.641-60.342,0 c-8.055,8.062-12.492,18.78-12.492,30.171c0,11.39,4.438,22.108,12.492,30.171l0,0l0,0c8.062,8.062,18.773,12.5,30.171,12.5 s22.109-4.438,30.171-12.5C80.89,491.43,85.327,480.711,85.327,469.321z"/>
    </g>
  </g>
</svg>